PathFileType	4	(X/Y/Z)	C:\Users\Biomechanik\SynologyDrive\AlexP\Athlete_03\Athlete_3_25_03_31\Squat_bar_04\marker_experimental.trc
DataRate	CameraRate	NumFrames	NumMarkers	Units	OrigDataRate	OrigDataStartFrame	OrigNumFrames
200.000000	200.000000	4	55	mm	200.000000	345	461
Frame#	Time	BL			BR			GLAB			RFHD			LFHD			C7			T6			SPINMOL			SPINM2			SPINM3			T12			BELTOL			BELT2			BELT3			SACROL			SACR2			SACR3			LTHOL			LTH2			LTH3			LSHAOL			LSHA2			LSHA3			LHEE			LTOE			LM5			RTHOL			RTH2			RTH3			RSHAOL			RSHA2			RSHA3			RHEE			RTOE			RM5			STRN			XIPH			LACR			LUAOL			LUA2			LUA3			LLAOL			LLA2			LLA3			LWRR			LWRU			RACR			RUAOL			RUA2			RUA3			RLAOL			RLA2			RLA3			RWRR			RWRU			
		X1	Y1	Z1	X2	Y2	Z2	X3	Y3	Z3	X4	Y4	Z4	X5	Y5	Z5	X6	Y6	Z6	X7	Y7	Z7	X8	Y8	Z8	X9	Y9	Z9	X10	Y10	Z10	X11	Y11	Z11	X12	Y12	Z12	X13	Y13	Z13	X14	Y14	Z14	X15	Y15	Z15	X16	Y16	Z16	X17	Y17	Z17	X18	Y18	Z18	X19	Y19	Z19	X20	Y20	Z20	X21	Y21	Z21	X22	Y22	Z22	X23	Y23	Z23	X24	Y24	Z24	X25	Y25	Z25	X26	Y26	Z26	X27	Y27	Z27	X28	Y28	Z28	X29	Y29	Z29	X30	Y30	Z30	X31	Y31	Z31	X32	Y32	Z32	X33	Y33	Z33	X34	Y34	Z34	X35	Y35	Z35	X36	Y36	Z36	X37	Y37	Z37	X38	Y38	Z38	X39	Y39	Z39	X40	Y40	Z40	X41	Y41	Z41	X42	Y42	Z42	X43	Y43	Z43	X44	Y44	Z44	X45	Y45	Z45	X46	Y46	Z46	X47	Y47	Z47	X48	Y48	Z48	X49	Y49	Z49	X50	Y50	Z50	X51	Y51	Z51	X52	Y52	Z52	X53	Y53	Z53	X54	Y54	Z54	X55	Y55	Z55	

346	1.725	232.2386627197266	1053.668823242188	-2240.662353515625	219.7242736816406	1103.081176757812	-220.2084808349609	518.6775512695312	1245.130249023438	-1188.647216796875	466.5988159179688	1272.050048828125	-1127.49853515625	477.7457885742188	1268.707397460938	-1262.78076171875	276.5602416992188	1137.843505859375	-1198.936157226562	153.1882171630859	1022.630432128906	-1209.1123046875	132.3982543945312	999.8003540039064	-1229.928344726562	122.5904693603516	994.1628417968751	-1180.971069335938	94.62823486328125	946.6333007812501	-1217.775512695312	65.77348327636719	893.9118652343751	-1217.423828125	26.29903221130371	881.2152099609376	-1233.417602539062	23.70592308044434	878.9617919921876	-1183.0234375	-11.33061408996582	831.4410400390626	-1211.921630859375	-63.86031723022461	730.8775024414064	-1236.332153320312	-63.89253616333008	728.1199951171876	-1184.685913085938	-77.81398010253906	669.8976440429689	-1212.985961914062	116.7385864257812	519.4645385742189	-1492.1201171875	140.4163360595703	443.2687072753907	-1496.968627929688	161.8530578613281	484.9575805664064	-1516.753173828125	212.4610748291016	308.1912231445314	-1598.892700195312	157.287841796875	259.6682739257814	-1567.6611328125	202.2715911865234	248.0634765625001	-1587.61474609375	112.8144378662109	69.9744415283204	-1465.209350585938	314.8053283691406	50.92870330810556	-1542.086547851562	236.9904022216797	24.9989070892335	-1621.2236328125	94.70740509033203	511.7361450195313	-928.2203979492188	152.3762817382812	534.4346923828125	-877.6621704101562	144.2888488769531	489.4092712402344	-897.1575317382812	185.8428039550781	322.5782165527344	-819.7125854492188	196.5486755371094	244.5153961181641	-815.29833984375	160.7027587890625	268.8466491699219	-840.11572265625	91.11109161376953	65.23837280273443	-965.5512084960938	279.5774230957031	47.61182403564458	-869.5187377929688	190.1305541992188	37.4306030273438	-798.000244140625	391.5550842285156	975.1051025390626	-1202.868408203125	346.6730041503906	834.8143310546876	-1197.923706054688	321.644775390625	1080.628051757812	-1373.535766601562	194.8779144287109	981.8005371093751	-1466.009765625	139.6703796386719	947.7173461914064	-1455.149291992188	167.4566955566406	928.8107299804689	-1493.504516601562	131.8808288574219	866.3356933593751	-1561.978515625	202.2523193359375	850.8843383789064	-1596.060791015625	180.1748504638672	895.4273681640626	-1587.171752929688	248.8324432373047	965.9706420898439	-1624.786865234375	262.3432312011719	992.4518432617189	-1551.512084960938	327.9650268554688	1077.152221679688	-1036.17919921875	200.7734527587891	983.4371337890626	-952.1502075195311	166.2057647705078	934.33935546875	-924.1154174804686	147.6996917724609	949.8905639648439	-970.5905761718749	149.9904022216797	866.5908813476562	-842.7520141601562	163.5627746582031	944.4283447265625	-831.4484252929686	194.4698486328125	904.8150024414062	-821.6517944335938	239.612060546875	985.3035888671875	-802.1900634765624	268.1150512695312	1012.531066894531	-872.2140502929686	
347	1.73	232.1575775146484	1059.778686523438	-2240.570068359375	219.1092376708984	1109.027465820312	-220.1195831298828	518.1544799804688	1251.489868164062	-1188.507568359375	466.0611877441406	1278.388549804688	-1127.365356445312	477.1866149902344	1275.024658203125	-1262.617431640625	276.1203002929688	1143.92236328125	-1198.821899414062	152.9544067382812	1028.2744140625	-1209.059204101562	132.2132568359375	1005.331237792969	-1229.865844726562	122.4081802368164	999.6862182617189	-1180.906616210938	94.61238861083984	952.0425415039064	-1217.697021484375	65.92574310302734	899.2142944335939	-1217.346313476562	26.44521903991699	886.3615112304689	-1233.333984375	23.84199333190918	884.0924072265626	-1182.948608398438	-11.08218765258789	836.4978027343751	-1211.853149414062	-63.21616363525391	735.9937133789064	-1236.290771484375	-63.25193405151367	733.2315673828126	-1184.640258789062	-77.15029144287109	675.0111694335939	-1212.945678710938	116.5853729248047	522.5827026367189	-1491.454833984375	139.6193695068359	446.1876831054689	-1495.75390625	161.3971557617188	487.5422363281251	-1515.825439453125	211.7188873291016	308.6875305175782	-1598.08837890625	156.7081451416016	259.9022521972657	-1566.990234375	201.7249298095703	248.4869995117188	-1586.98486328125	112.7916717529297	69.96149444580087	-1465.2021484375	314.7962341308594	50.9396514892579	-1542.077026367188	237.0053863525391	25.01717185974131	-1621.198486328125	94.39282989501953	515.0051269531251	-928.9625244140625	152.1736450195312	536.85009765625	-878.1553955078125	143.7713775634766	492.0459899902344	-898.0363159179688	184.9581146240234	323.1301574707032	-820.5355224609375	195.9063415527344	245.1164550781251	-815.8641967773438	160.0017700195312	269.2460327148438	-840.7989501953125	91.06804656982422	65.21393585205084	-965.5413818359375	279.5800170898438	47.61728668212896	-869.4885864257812	190.1347808837891	37.44046401977544	-798.0122680664062	391.3833312988281	981.3995971679689	-1202.702026367188	346.8202209472656	841.0366821289064	-1197.805786132812	321.3169860839844	1086.806518554688	-1373.390625	194.6916198730469	987.8191528320314	-1465.859130859375	139.5706939697266	953.6653442382814	-1454.955322265625	167.3274841308594	934.7993164062501	-1493.3681640625	131.8691711425781	872.2705688476564	-1561.848022460938	202.2687835693359	856.8963012695314	-1595.951904296875	180.1172180175781	901.4216308593751	-1587.055786132812	248.7042083740234	972.0240478515626	-1624.682373046875	262.2156982421875	998.5499877929689	-1551.436279296875	327.5220031738281	1083.2802734375	-1036.009643554688	200.4021148681641	989.3947753906251	-952.1000366210936	165.8915863037109	940.2449951171875	-924.0853271484374	147.4014434814453	955.7596435546876	-970.5794677734374	149.7459106445312	872.4766845703125	-842.7149658203125	163.2205352783203	950.3206787109375	-831.4104003906249	194.1636657714844	910.7548828125	-821.5947875976562	239.2190551757812	991.2858276367188	-802.1111450195311	267.7290344238281	1018.544738769531	-872.1257324218749	
348	1.735	232.0661315917969	1065.885986328125	-2240.4755859375	218.4864044189453	1114.986694335938	-220.0289459228515	517.6202392578125	1257.867065429688	-1188.35693359375	465.5091247558594	1284.742065429688	-1127.221435546875	476.6196899414062	1281.361083984375	-1262.445434570312	275.670654296875	1150.00732421875	-1198.705078125	152.7200622558594	1033.914428710938	-1209.006103515625	132.0332489013672	1010.857666015625	-1229.804443359375	122.2271041870117	1005.203247070313	-1180.848510742188	94.60509490966797	957.4440917968751	-1217.623168945312	66.09146881103516	904.5098876953126	-1217.275756835938	26.61785697937012	891.5078735351564	-1233.262084960938	24.00209999084473	889.2242431640626	-1182.88720703125	-10.81038665771484	841.5501098632814	-1211.80419921875	-62.54937744140625	741.1143798828126	-1236.263916015625	-62.59127426147461	738.3505249023439	-1184.609130859375	-76.46580505371094	680.1312255859376	-1212.915405273438	116.442024230957	525.7050781250001	-1490.775634765625	138.8265838623047	449.1221313476564	-1494.52294921875	160.9411926269531	490.1365661621095	-1514.875122070312	210.9600524902344	309.1963195800782	-1597.252563476562	156.1188812255859	260.1414184570314	-1566.291870117188	201.1668853759766	248.9218750000001	-1586.33056640625	112.7708435058594	69.94985198974618	-1465.19384765625	314.7904357910156	50.95158386230478	-1542.064086914062	237.0200958251953	25.03717422485362	-1621.170654296875	94.07460021972656	518.2929687500001	-929.732421875	151.9664306640625	539.2782592773438	-878.687255859375	143.2457122802734	494.7010498046876	-898.94873046875	184.0435333251953	323.7021484375001	-821.404541015625	195.2325134277344	245.7416992187501	-816.4554443359375	159.2757263183594	269.6649169921876	-841.5175170898438	91.02214813232422	65.19132232666021	-965.5328369140625	279.5829467773438	47.62364578247075	-869.4586791992188	190.1392364501953	37.45071792602544	-798.0252685546875	391.2114868164062	987.7118530273439	-1202.534057617188	346.9810791015625	847.2717285156251	-1197.687255859375	320.9788208007812	1092.998901367188	-1373.244262695312	194.5061645507812	993.8380737304689	-1465.70751953125	139.4765014648438	959.6065063476564	-1454.763671875	167.2092590332031	940.7838134765626	-1493.22998046875	131.8739929199219	878.1967163085939	-1561.718017578125	202.3043060302734	862.9071655273439	-1595.84130859375	180.0734252929688	907.4120483398439	-1586.939331054688	248.5780792236328	978.0819091796876	-1624.577270507812	262.0853576660156	1004.658508300781	-1551.360717773438	327.0703125	1089.415649414062	-1035.836303710938	200.0278625488281	995.3533325195314	-952.0494384765624	165.5798950195312	946.1480102539062	-924.0543212890624	147.1026458740234	961.6254882812501	-970.5664062499999	149.5073089599609	878.3610229492188	-842.676025390625	162.8779296875	956.2116088867188	-831.3711547851561	193.8589477539062	916.6956787109375	-821.5352783203125	238.8232727050781	997.2731323242188	-802.0297241210936	267.3410949707031	1024.565795898438	-872.0347290039061	
349	1.74	231.9651947021484	1071.988037109375	-2240.37939453125	217.8558654785156	1120.954833984375	-219.9366149902343	517.074951171875	1264.259643554688	-1188.196166992188	464.9426574707031	1291.108154296875	-1127.067016601562	476.0457763671875	1287.714599609375	-1262.265991210938	275.211669921875	1156.095336914062	-1198.58642578125	152.4854583740234	1039.548095703125	-1208.952270507812	131.8585815429688	1016.377380371094	-1229.743896484375	122.0480880737305	1010.711303710938	-1180.79443359375	94.60734558105469	962.8357543945314	-1217.553833007812	66.27098083496094	909.7965087890626	-1217.212036132812	26.81726264953613	896.6518554687501	-1233.203735351562	24.18598747253418	894.3550415039064	-1182.840698242188	-10.51564884185791	846.5962524414064	-1211.775634765625	-61.86076354980469	746.2366333007814	-1236.25244140625	-61.910888671875	743.4741821289064	-1184.593383789062	-75.76282501220703	685.2550659179689	-1212.896484375	116.3069458007812	528.8312377929689	-1490.083251953125	138.0363006591797	452.0709533691407	-1493.276611328125	160.4846954345703	492.7398376464845	-1513.903076171875	210.1835632324219	309.7170410156251	-1596.38525390625	155.5189208984375	260.3854064941407	-1565.565673828125	200.59619140625	249.3677520751954	-1585.652099609375	112.7517547607422	69.93936920166024	-1465.1845703125	314.7876281738281	50.96402740478525	-1542.048095703125	237.0341796875	25.05899620056162	-1621.140502929688	93.75132751464844	521.5990600585939	-930.5293579101562	151.7531890869141	541.7186889648438	-879.2574462890625	142.7099151611328	497.3740234375001	-899.893798828125	183.0977325439453	324.2927246093751	-822.3187866210938	194.5264282226562	246.3897857666016	-817.0723876953125	158.5232086181641	270.1016845703126	-842.2708740234375	90.97394561767578	65.16965484619146	-965.5250854492188	279.5857238769531	47.63110351562505	-869.4295654296875	190.1437835693359	37.46118927001958	-798.0390014648438	391.0399169921875	994.0397338867189	-1202.365478515625	347.1560974121094	853.5179443359376	-1197.56787109375	320.6301574707031	1099.201782226562	-1373.097045898438	194.3210906982422	999.8539428710939	-1465.555053710938	139.3873443603516	965.5363159179689	-1454.574340820312	167.1024627685547	946.7607421875001	-1493.089721679688	131.8955993652344	884.1105957031251	-1561.588989257812	202.3585052490234	868.9141235351564	-1595.729125976562	180.0437469482422	913.3954467773439	-1586.822631835938	248.4538726806641	984.1413574218751	-1624.47216796875	261.9526062011719	1010.773315429688	-1551.284912109375	326.6104431152344	1095.5556640625	-1035.66064453125	199.6510467529297	1001.3095703125	-951.9991455078124	165.2710418701172	952.04541015625	-924.0234985351561	146.8040008544922	967.4850463867189	-970.5521850585936	149.2758636474609	884.240478515625	-842.6359252929688	162.5364074707031	962.0978393554688	-831.3312377929686	193.556884765625	922.6338500976562	-821.47412109375	238.4255065917969	1003.262390136719	-801.9464721679686	266.9518737792969	1030.59130859375	-871.9416503906249	
